<svg width="0" height="0" class="hidden">
  <symbol xmlns="http://www.w3.org/2000/svg" viewBox="0 0 10 20" id="fb">
    <path class="fill-good" fill="#929292" d="M9.276-.002h-2.24c-1.713 0-2.945.378-3.693 1.135-.748.757-1.122 1.872-1.122 3.344v1.404c0 .37-.323.671-.722.671H.725c-.399 0-.722.301-.722.672v2.103c0 .372.323.672.722.672H1.5c.4 0 .722.3.722.672v8.657c0 .371.324.672.722.672H5.95c.399 0 .722-.3.722-.672v-8.657c0-.371.323-.672.722-.672H8.91c.398 0 .756-.3.797-.668l.24-2.111c.042-.369-.247-.668-.646-.668h-1.91c-.398 0-.721-.3-.721-.671V4.829c0-.26.013-.46.039-.601.026-.142.084-.281.176-.418.091-.138.24-.233.444-.286.204-.053.476-.079.815-.079h1.13c.4 0 .723-.3.723-.672V.67c0-.371-.323-.672-.722-.672z"></path>
  </symbol>
  <symbol xmlns="http://www.w3.org/2000/svg" viewBox="0 0 18 16" id="twitter">
    <path class="fill-good" fill="#929292" d="M17.469 2.26a6.744 6.744 0 0 1-.266.076c-.543.144-.592-.046-.2-.464.176-.188.332-.392.466-.612.303-.494.04-.71-.474-.48-.184.083-.37.158-.56.224-.53.187-1.282-.094-1.755-.409C14.084.198 13.406 0 12.646 0c-1.064 0-1.97.393-2.72 1.18-.75.788-1.126 1.74-1.126 2.857 0 .153.008.308.025.465.027.255-.384.441-.938.36a10.29 10.29 0 0 1-3.416-1.144A11 11 0 0 1 1.64 1.53c-.392-.42-.92-.384-1.067.183a4.23 4.23 0 0 0-.131 1.06 4.137 4.137 0 0 0 1.006 2.724c.348.402.295.635-.19.492-.485-.142-.84-.354-.84-.34v.025c0 .975.292 1.83.875 2.568.36.455.777.805 1.253 1.053.501.26.735.405.454.444a3.906 3.906 0 0 1-.875.018c-.2-.018-.236.42.068.914.242.391.551.736.928 1.034a3.7 3.7 0 0 0 1.239.653c.538.16.646.454.166.756-1.187.748-2.501 1.122-3.942 1.122a9.5 9.5 0 0 1-.465-.011c-.256-.013-.084.224.412.496A10.271 10.271 0 0 0 5.56 16a10.77 10.77 0 0 0 3.847-.68c1.198-.455 2.223-1.063 3.072-1.826a12.05 12.05 0 0 0 2.197-2.63 12.022 12.022 0 0 0 1.826-6.614c-.003-.145.362-.537.77-.939a8.21 8.21 0 0 0 .528-.571c.37-.442.206-.643-.331-.48z"></path>
  </symbol>
  <symbol xmlns="http://www.w3.org/2000/svg" viewBox="0 0 19 14" id="yt">
    <path class="fill-good" fill="#929292" d="M18.997 6.996c0 1.567-.001 3.227-.332 4.748-.233 1.069-1.06 1.857-2.054 1.975-2.355.278-4.739.279-7.113.278-2.374.001-4.758 0-7.114-.278-.995-.118-1.82-.906-2.053-1.975-.33-1.52-.33-3.18-.33-4.748C0 5.43.003 3.77.334 2.248.568 1.18 1.393.392 2.387.274c2.356-.278 4.741-.28 7.115-.278 2.373-.001 4.758 0 7.113.278.995.118 1.821.906 2.054 1.974.33 1.521.328 3.182.328 4.748zm-5.91-.193l-6.04-3.332v6.643l6.04-3.31z"></path>
  </symbol>
</svg>