<svg xmlns="http://www.w3.org/2000/svg" width="18" height="16" viewBox="0 0 18 16"><g><g><path fill="#929292" d="M17.469 2.26a6.78 6.78 0 0 1-.266.076c-.543.144-.592-.046-.2-.464.176-.188.332-.392.466-.612.303-.494.04-.71-.474-.48-.184.083-.37.158-.56.224-.53.187-1.282-.095-1.755-.41C14.084.199 13.406 0 12.646 0c-1.064 0-1.97.393-2.72 1.18-.75.788-1.126 1.74-1.126 2.857 0 .153.008.308.025.465.027.255-.384.441-.938.36a10.29 10.29 0 0 1-3.416-1.144A11 11 0 0 1 1.64 1.53c-.392-.42-.92-.384-1.067.183a4.23 4.23 0 0 0-.131 1.06 4.137 4.137 0 0 0 1.006 2.724c.348.402.295.635-.19.492-.485-.142-.84-.354-.84-.34v.025c0 .974.292 1.83.875 2.568.36.455.777.805 1.253 1.053.501.26.735.405.454.444a3.906 3.906 0 0 1-.875.017c-.2-.017-.236.422.068.915.242.391.551.736.928 1.034.383.303.796.52 1.239.653.538.16.646.454.166.756-1.187.748-2.501 1.122-3.942 1.122-.162 0-.317-.004-.465-.011-.256-.013-.084.224.412.496A10.271 10.271 0 0 0 5.56 16c1.366 0 2.648-.227 3.847-.68 1.198-.455 2.223-1.063 3.072-1.826a12.05 12.05 0 0 0 2.197-2.631 12.021 12.021 0 0 0 1.826-6.613c-.003-.145.362-.537.77-.939.185-.181.36-.372.528-.571.37-.442.206-.643-.331-.48z"/></g></g></svg>